<mxfile host="app.diagrams.net" modified="2024-05-24T08:40:33.019Z" agent="Mozilla/5.0 (Windows NT 6.1; WOW64) AppleWebKit/537.36 (KHTML, like Gecko) Chrome/109.0.0.0 Safari/537.36 OPR/95.0.0.0" version="24.4.4" etag="jh09BcMlW9j3pjzbtSRC" type="github">
  <diagram name="Страница — 1" id="If9CcTGJRTZnB2D3DZ8I">
    <mxGraphModel>
      <root>
        <mxCell id="0" />
        <mxCell id="1" parent="0" />
      </root>
    </mxGraphModel>
  </diagram>
</mxfile>
